<?xml version="1.0" encoding="utf-8"?>
<!-- Generator: Adobe Illustrator 21.1.0, SVG Export Plug-In . SVG Version: 6.00 Build 0)  -->
<svg version="1.1" id="Слой_1" xmlns="http://www.w3.org/2000/svg"  x="0px" y="0px"
	 viewBox="0 0 221 185.3" style="enable-background:new 0 0 221 185.3;" xml:space="preserve">
<style type="text/css">
	.st0{fill:#B0B0B2;}
	.st1{fill:#EEEEEF;}
	.st2{fill:#ADADAF;}
	.st3{fill:#ACACAE;}
	.st4{fill:#AFAFB0;}
	.st5{fill:#B3B3B4;}
	.st6{fill:#B4B4B6;}
	.st7{fill:#B2B2B4;}
	.st8{fill:#B8B8BA;}
	.st9{fill:#DFDFDF;}
	.st10{fill:#BABABB;}
	.st11{fill:#96CECA;}
	.st12{font-family:'Roboto';}
	.st13{font-size:85.4444px;}
</style>
<g>
	<g>
		<path class="st0" d="M0,96.2c0.5-0.3,1.2-0.5,1.5-0.9c3.6-6.6,9.6-10.6,15.1-15.4c3-2.6,5.4-5.9,7.8-9.2c2.9-4.1,5.8-8.3,8.2-12.7
			c2.3-4.3,5.4-6.3,10.3-5.7c1.8,0.2,3.6,0,5,0c3.2-3.5,6-6.7,9.2-10.1c1.6,1.3,2.9,2.4,4.4,3.6c-0.6,1.6-0.9,3-1.7,4.1
			c-3.6,4.9-3.9,9.8-1.1,15.1c0.5,0.9,0.7,1.9,1.2,3.4c-2.9,4.5-5.7,9.6-9.2,14.2C45,89.9,42,98.5,39.5,107.1
			c-1.4,4.9-4.6,8.2-7.2,12.5c-9.7-6.5-19-12.8-28.4-19c-1.2-0.8-2.5-1.3-3.7-2C0,97.8,0,97,0,96.2z M5.2,97.3
			c8.9,5.6,17.2,12,26.8,17.4c0.9-2.5,1.5-4.3,2.2-6.1c0-0.4,0-0.8,0-1.2c0.8-1.2,2.1-2.4,2.5-3.7c2.9-9.5,7-18.3,13.1-26.2
			c1.7-2.2,2.9-4.7,4.2-6.9c-4-3-7.6-5.7-11.2-8.4l0.2-0.1c1.4,0.5,2.9,0.9,4.3,1.5c2.4,1,4.6,2.9,7.1,2c-0.6-3.8-1.1-7.2-1.7-10.6
			c2.1-1,2.6-2.8,2.4-5c0.5-0.4,1-0.8,1.4-1.2c0.3-0.6,0.6-1.3,0.9-1.9c-0.2-0.1-0.5-0.2-0.7-0.4c-0.5,0.8-1,1.5-1.5,2.3
			c-0.1,0.4-0.1,0.8-0.1,1.2c-2.3,0.8-2.7,2.7-2.6,4.7c-2.5,0.5-5.1,1.5-7.6,1.3c-4.7-0.3-7.3,1.7-9.8,5.5
			c-5.2,7.9-10,16.2-17.2,22.5c-2.7,2.4-5.3,4.9-7.9,7.3"/>
		<path class="st1" d="M206.3,184.2c0,0.4,0,0.7,0,1.1c-2.8,0-5.7,0-8.5,0c0-0.4,0-0.8,0-1.1C200.6,184.2,203.5,184.2,206.3,184.2z"
			/>
		<path class="st2" d="M181.9,2.3c4.2-3.1,4.2-3.1,7.4,0c-1.1,1.3-2.3,2.7-3.9,4.6c10.4,10.7,20.8,21.4,31.4,32c3,3.1,5,6.3,4,10.8
			c-4.1-0.9-7.3-3-10.2-6.1c-8.6-9.2-17.4-18.2-26.1-27.3c-1.4-1.5-2.7-3.1-4.2-4.8c-1.2,0.8-2,1.5-2.8,1.7
			c-1.2,0.4-2.5,0.4-3.7,0.6c0.2-1.2,0-2.8,0.7-3.7C176.8,7.5,179.4,5,181.9,2.3z"/>
		<path class="st3" d="M186.9,142.1c-0.1-1.2,0-2.5-0.2-3.6c-0.8-4,1.2-6.5,4.1-8.8c6.8-5.5,13.4-11,20.1-16.6
			c1.8-1.5,3.4-2.9,5.9-1.8c0.9,1.9,0.5,3.4-0.7,5c-6,7.6-12.1,15.1-17.8,22.9c-3,4.1-6.9,3.4-10.9,3.3L186.9,142.1z"/>
		<path class="st4" d="M206.3,184.2c-2.9,0-5.7,0-8.6,0c-5.6-1.3-11.1-2.5-16.7-3.8c6.8-2.4,14.2,0.8,21.5-3.8
			c-6.9-6.8-15.4-8.7-23-12.2c0.4-0.4,0.8-0.8,1.2-1.1c9.6,2,18.6,5.8,27.4,10.2c0.7,0.4,1.2,1,1.9,1.5c4.1,3.1,2.8,7.2-1.3,8.9
			C208,184.2,207.1,184.1,206.3,184.2z"/>
		<path class="st5" d="M62,47.9c1.7-1,2.5-1.5,3.4-1.9c4.6-2.4,4.1-9.2-1-10.9c-2.3-0.7-4.6-1.5-6.9-1.7c-4.8-0.4-9.7-0.5-14.5-0.5
			c-1.3,0-2.5,1.1-3.6,1.7c0,5.7,1.2,6.5,5.8,4.4c0.9-0.4,1.8-0.9,2.7-1.3c0.7-0.3,1.5-0.7,2.2-1c4.7,3.4,4.7,3.4,1.2,7.1
			c-0.6-1.3-1.2-2.4-1.7-3.6c-2.6,1.2-5.1,2.3-8.1,3.6c-1.4-1.1-3.3-2-4.4-3.5c-2.7-3.7-0.6-9.5,4-9.8c7.2-0.4,14.5,0.3,21.8,0.7
			c3.8,0.2,6.1,3,8,5.9c3.1,4.8-0.2,11.6-5.9,12.4C64,49.6,63.3,48.7,62,47.9z"/>
		<path class="st3" d="M186.9,142.1l0.3,0.3c1.4,6.5,0.4,8.8-4.2,9.9c-5.6,1.4-9-0.5-10.9-6.7C177.3,145.3,180.8,138.8,186.9,142.1z
			"/>
		<path class="st6" d="M31.8,39.4c-1.6,2-3.1,4.2-4.9,6c-3,3-8.5,2.9-10.8-0.1c-2.4-3-2.3-10.2,0.8-12.3c1.3-0.8,3.3-1.7,4.5-1.3
			C25.3,33.1,29.6,34,31.8,39.4z M17.1,39.7c0.1,3.2,2.4,5.5,5.2,5.2c2.1-0.2,5.7-3.6,5.8-5.5c0.1-2.2-3.5-4.5-7-4.4
			C18.1,35.1,17,36.4,17.1,39.7z"/>
		<path class="st7" d="M163.7,150.7c-0.7,2.3-1,3.2-1.3,4.3c1.6,1.1,3.2,2.3,4.8,3.4c-0.2,0.4-0.5,0.7-0.7,1.1
			c-3.8-1.8-7.5-3.7-11.3-5.5c0.1-0.5,0.1-1,0.2-1.5C157.8,152,160.3,151.5,163.7,150.7z"/>
		<path class="st8" d="M180.7,163.3c-0.4,0.4-0.8,0.8-1.2,1.1c-3.2-1.3-21.8-7.8-24.3-10.4C160.7,153.1,177.3,161.7,180.7,163.3z"/>
		<path class="st9" d="M55,48.7c0.5-0.8,1-1.5,1.5-2.3c0.2,0.1,0.5,0.2,0.7,0.4c-0.3,0.6-0.6,1.3-0.9,1.9
			C55.9,48.6,55.5,48.6,55,48.7z"/>
		<path class="st10" d="M14.7,95c-0.8-0.4-1.7-0.8-2.5-1.3C13,94.2,13.8,94.6,14.7,95z"/>
		<path class="st10" d="M18.3,97.4c-0.8-0.4-1.7-0.8-2.5-1.3C16.7,96.6,17.5,97,18.3,97.4z"/>
		<path class="st10" d="M22,99.9c-0.8-0.4-1.7-0.8-2.5-1.3C20.3,99,21.2,99.5,22,99.9z"/>
		<path class="st10" d="M29.3,104.8c-0.8-0.4-1.7-0.8-2.5-1.3C27.7,103.9,28.5,104.3,29.3,104.8z"/>
		<path class="st10" d="M12.2,93.8c-0.4-0.4-0.8-0.8-1.3-1.3C11.4,92.9,11.8,93.4,12.2,93.8z"/>
		<path class="st10" d="M15.9,96.2c-0.4-0.4-0.8-0.8-1.3-1.3C15.1,95.4,15.5,95.8,15.9,96.2z"/>
		<path class="st10" d="M19.6,98.7c-0.4-0.4-0.8-0.8-1.3-1.3C18.7,97.8,19.1,98.2,19.6,98.7z"/>
		<path class="st10" d="M26.9,103.5c-0.4-0.4-0.8-0.8-1.3-1.3C26,102.7,26.5,103.1,26.9,103.5z"/>
	</g>
	<text transform="matrix(1 0 0 1 107.416 103.5129)" class="st11 st12 st13">4+</text>
</g>
</svg>
