<?xml version="1.0" encoding="utf-8"?>
<!-- Generator: Adobe Illustrator 21.1.0, SVG Export Plug-In . SVG Version: 6.00 Build 0)  -->
<svg version="1.1" id="Слой_1" xmlns="http://www.w3.org/2000/svg"  x="0px" y="0px"
	 viewBox="0 0 339.7 339.4" style="enable-background:new 0 0 339.7 339.4;" xml:space="preserve">
<style type="text/css">
	.st0{fill:#898989;}
	.st1{fill:#FFFFFF;}
</style>
<g>
	<path class="st0" d="M339.7,169.9c-0.7,46.9-17.3,87.4-50.5,120.4c-32.1,31.9-71.5,48.6-116.8,49.1c-49.1,0.6-91.2-17.1-125.3-52.5
		C15.7,254.1-0.2,214.4,0,169.1c0.2-46.6,17.2-87,50.3-119.8C84.2,15.7,125.6-0.9,173.3,0c46.1,0.9,85.9,18.3,118.1,51.4
		C323.4,84.2,339.1,124.1,339.7,169.9z M137.6,171.5c-1.6-0.2-2.8-0.3-4-0.6c-5.3-1.4-8.6-5.5-11.9-9.3c-3.7-4.5-7.1-9.3-10.1-14.2
		c-4.9-7.8-9.5-15.7-13.9-23.7c-1.8-3.2-4.2-4.8-7.7-5.2c-0.9-0.1-1.8-0.1-2.7-0.1c-9.4,0-18.9,0-28.3,0c-1.1,0-2.3,0.2-3.4,0.5
		c-2.2,0.6-3.1,2.1-2.3,4.2c0.7,2,1.6,3.9,2.6,5.7c3,5.7,5.9,11.5,9.1,17.1c4.3,7.6,8.8,15.2,13.4,22.7c3.7,5.9,7.6,11.7,11.5,17.5
		c7.5,11.1,15.9,21.4,25.6,30.7c6,5.8,12.5,10.9,20.1,14.3c3.4,1.5,7.2,2.9,10.9,3c9.8,0.4,19.6,0.2,29.4,0.1c3.1,0,6-2.4,5.9-6.1
		c-0.2-6.7-0.1-13.5-0.1-20.2c0-2.2,0.2-2.4,2.4-1.9c1.3,0.3,2.7,0.6,4,1c6.2,1.9,11.4,5.3,16,9.7c3.7,3.5,7.2,7.1,10.7,10.7
		c1.4,1.4,2.7,2.8,4.2,4.1c1.7,1.5,3.6,2.7,5.9,2.7c14.3,0,28.7,0,43,0c2,0,3.8-0.9,4.7-2.7c1-1.8-0.3-3.4-1.4-4.7
		c-4.9-5.6-9.8-11.2-14.9-16.7c-4.4-4.9-9-9.5-13.4-14.4c-2.8-3.1-5.5-6.3-7.9-9.7c-2.7-3.7-2.6-5.2,0-9c3.1-4.6,6.2-9.2,9.1-13.8
		c7.3-11.5,14.5-23,21.8-34.6c1-1.6,2-3.3,2.6-5.1c0.9-2.6,0.1-3.8-2.3-4.4c-1.3-0.3-2.7-0.5-4.1-0.5c-10.9,0-21.8,0.1-32.6-0.1
		c-3.6-0.1-6.2,1.3-7.9,4.3c-2.1,3.6-4.2,7.2-6.1,10.9c-4,7.9-8.3,15.6-13.5,22.8c-2.7,3.8-5.7,7.4-9.5,10.1
		c-3.5,2.5-7.1,4.6-11.8,4.8c-0.1-1.1-0.3-2-0.3-3c0-2.2,0.3-4.4,0.3-6.6c0.1-13.3,0.1-26.5,0.2-39.8c0-1.5-0.2-3-0.5-4.5
		c-0.4-2.2-1.9-3.6-3.9-4.1c-2-0.5-4.2-0.8-6.3-0.8c-9-0.1-17.9-0.1-26.9,0c-2.5,0-5,0.3-7.5,0.8c-2.9,0.5-5.5,1.7-7.4,4.2
		c-1.3,1.7-0.8,3.2,1.2,3.9c0.6,0.2,1.3,0.3,2,0.5c2.5,0.8,4.7,1.8,5.4,4.6c0.4,2,1,4,1,6c0.1,12,0,24.1,0,36.1
		C137.8,169.4,137.7,170.2,137.6,171.5z"/>
	<path class="st1" d="M137.6,171.5c0.1-1.3,0.1-2.1,0.1-2.9c0-12,0.1-24.1,0-36.1c0-2-0.5-4.1-1-6c-0.6-2.8-2.9-3.9-5.4-4.6
		c-0.6-0.2-1.3-0.2-2-0.5c-2-0.7-2.4-2.2-1.2-3.9c1.9-2.4,4.5-3.6,7.4-4.2c2.5-0.5,5-0.8,7.5-0.8c9-0.1,17.9-0.1,26.9,0
		c2.1,0,4.3,0.3,6.3,0.8c2,0.5,3.5,2,3.9,4.1c0.3,1.5,0.5,3,0.5,4.5c0,13.3-0.1,26.5-0.2,39.8c0,2.2-0.2,4.4-0.3,6.6
		c0,0.9,0.2,1.9,0.3,3c4.7-0.2,8.4-2.3,11.8-4.8c3.8-2.8,6.8-6.4,9.5-10.1c5.2-7.2,9.5-14.9,13.5-22.8c1.9-3.7,4-7.3,6.1-10.9
		c1.7-3,4.3-4.4,7.9-4.3c10.9,0.2,21.8,0,32.6,0.1c1.4,0,2.8,0.1,4.1,0.5c2.4,0.6,3.2,1.9,2.3,4.4c-0.6,1.8-1.6,3.5-2.6,5.1
		c-7.2,11.6-14.5,23.1-21.8,34.6c-3,4.7-6.1,9.2-9.1,13.8c-2.6,3.8-2.7,5.3,0,9c2.5,3.4,5.2,6.6,7.9,9.7c4.4,4.9,9,9.6,13.4,14.4
		c5,5.5,10,11.1,14.9,16.7c1.1,1.3,2.4,2.9,1.4,4.7c-0.9,1.8-2.7,2.7-4.7,2.7c-14.3,0-28.7,0-43,0c-2.3,0-4.2-1.2-5.9-2.7
		c-1.4-1.3-2.8-2.8-4.2-4.1c-3.6-3.6-7.1-7.2-10.7-10.7c-4.6-4.4-9.9-7.8-16-9.7c-1.3-0.4-2.6-0.7-4-1c-2.2-0.5-2.4-0.3-2.4,1.9
		c0,6.7-0.2,13.5,0.1,20.2c0.1,3.7-2.8,6.1-5.9,6.1c-9.8,0.1-19.6,0.3-29.4-0.1c-3.7-0.2-7.5-1.5-10.9-3
		c-7.6-3.4-14.1-8.5-20.1-14.3c-9.7-9.3-18.1-19.6-25.6-30.7c-3.9-5.8-7.8-11.6-11.5-17.5c-4.6-7.5-9-15-13.4-22.7
		c-3.2-5.6-6.1-11.4-9.1-17.1c-1-1.9-1.9-3.7-2.6-5.7c-0.7-2.1,0.2-3.6,2.3-4.2c1.1-0.3,2.3-0.5,3.4-0.5c9.4,0,18.9,0,28.3,0
		c0.9,0,1.8,0.1,2.7,0.1c3.5,0.4,5.9,2,7.7,5.2c4.4,8,9.1,15.9,13.9,23.7c3.1,4.9,6.4,9.8,10.1,14.2c3.2,3.9,6.6,7.9,11.9,9.3
		C134.8,171.3,136.1,171.3,137.6,171.5z"/>
</g>
</svg>
