<svg xmlns="http://www.w3.org/2000/svg" viewBox="0 0 221 185.3"><path d="M0 96.2c.5-.3 1.2-.5 1.5-.9 3.6-6.6 9.6-10.6 15.1-15.4 3-2.6 5.4-5.9 7.8-9.2 2.9-4.1 5.8-8.3 8.2-12.7 2.3-4.3 5.4-6.3 10.3-5.7 1.8.2 3.6 0 5 0l9.2-10.1 4.4 3.6c-.6 1.6-.9 3-1.7 4.1-3.6 4.9-3.9 9.8-1.1 15.1.5.9.7 1.9 1.2 3.4-2.9 4.5-5.7 9.6-9.2 14.2-5.7 7.3-8.7 15.9-11.2 24.5-1.4 4.9-4.6 8.2-7.2 12.5l-28.4-19c-1.2-.8-2.5-1.3-3.7-2C0 97.8 0 97 0 96.2zm5.2 1.1c8.9 5.6 17.2 12 26.8 17.4l2.2-6.1v-1.2c.8-1.2 2.1-2.4 2.5-3.7 2.9-9.5 7-18.3 13.1-26.2 1.7-2.2 2.9-4.7 4.2-6.9l-11.2-8.4.2-.1c1.4.5 2.9.9 4.3 1.5 2.4 1 4.6 2.9 7.1 2L52.7 55c2.1-1 2.6-2.8 2.4-5 .5-.4 1-.8 1.4-1.2.3-.6.6-1.3.9-1.9-.2-.1-.5-.2-.7-.4-.5.8-1 1.5-1.5 2.3-.1.4-.1.8-.1 1.2-2.3.8-2.7 2.7-2.6 4.7-2.5.5-5.1 1.5-7.6 1.3-4.7-.3-7.3 1.7-9.8 5.5-5.2 7.9-10 16.2-17.2 22.5-2.7 2.4-5.3 4.9-7.9 7.3" fill="#b0b0b2"/><path d="M206.3 184.2v1.1h-8.5v-1.1h8.5z" fill="#eeeeef"/><path d="M181.9 2.3c4.2-3.1 4.2-3.1 7.4 0l-3.9 4.6 31.4 32c3 3.1 5 6.3 4 10.8-4.1-.9-7.3-3-10.2-6.1l-26.1-27.3c-1.4-1.5-2.7-3.1-4.2-4.8-1.2.8-2 1.5-2.8 1.7-1.2.4-2.5.4-3.7.6.2-1.2 0-2.8.7-3.7 2.3-2.6 4.9-5.1 7.4-7.8z" fill="#adadaf"/><path d="M186.9 142.1c-.1-1.2 0-2.5-.2-3.6-.8-4 1.2-6.5 4.1-8.8l20.1-16.6c1.8-1.5 3.4-2.9 5.9-1.8.9 1.9.5 3.4-.7 5l-17.8 22.9c-3 4.1-6.9 3.4-10.9 3.3l-.5-.4z" fill="#acacae"/><path d="M206.3 184.2h-8.6l-16.7-3.8c6.8-2.4 14.2.8 21.5-3.8-6.9-6.8-15.4-8.7-23-12.2.4-.4.8-.8 1.2-1.1 9.6 2 18.6 5.8 27.4 10.2.7.4 1.2 1 1.9 1.5 4.1 3.1 2.8 7.2-1.3 8.9-.7.3-1.6.2-2.4.3z" fill="#afafb0"/><path d="M62 47.9l3.4-1.9c4.6-2.4 4.1-9.2-1-10.9-2.3-.7-4.6-1.5-6.9-1.7-4.8-.4-9.7-.5-14.5-.5-1.3 0-2.5 1.1-3.6 1.7 0 5.7 1.2 6.5 5.8 4.4.9-.4 1.8-.9 2.7-1.3.7-.3 1.5-.7 2.2-1 4.7 3.4 4.7 3.4 1.2 7.1-.6-1.3-1.2-2.4-1.7-3.6l-8.1 3.6c-1.4-1.1-3.3-2-4.4-3.5-2.7-3.7-.6-9.5 4-9.8 7.2-.4 14.5.3 21.8.7 3.8.2 6.1 3 8 5.9 3.1 4.8-.2 11.6-5.9 12.4-1 .1-1.7-.8-3-1.6z" fill="#b3b3b4"/><path d="M186.9 142.1l.3.3c1.4 6.5.4 8.8-4.2 9.9-5.6 1.4-9-.5-10.9-6.7 5.2-.3 8.7-6.8 14.8-3.5z" fill="#acacae"/><path d="M31.8 39.4l-4.9 6c-3 3-8.5 2.9-10.8-.1-2.4-3-2.3-10.2.8-12.3 1.3-.8 3.3-1.7 4.5-1.3 3.9 1.4 8.2 2.3 10.4 7.7zm-14.7.3c.1 3.2 2.4 5.5 5.2 5.2 2.1-.2 5.7-3.6 5.8-5.5.1-2.2-3.5-4.5-7-4.4-3 .1-4.1 1.4-4 4.7z" fill="#b4b4b6"/><path d="M163.7 150.7l-1.3 4.3 4.8 3.4c-.2.4-.5.7-.7 1.1l-11.3-5.5c.1-.5.1-1 .2-1.5l8.3-1.8z" fill="#b2b2b4"/><path d="M180.7 163.3l-1.2 1.1c-3.2-1.3-21.8-7.8-24.3-10.4 5.5-.9 22.1 7.7 25.5 9.3z" fill="#b8b8ba"/><path d="M55 48.7l1.5-2.3c.2.1.5.2.7.4l-.9 1.9c-.4-.1-.8-.1-1.3 0z" fill="#dfdfdf"/><g fill="#bababb"><path d="M14.7 95l-2.5-1.3c.8.5 1.6.9 2.5 1.3zm3.6 2.4l-2.5-1.3 2.5 1.3zm3.7 2.5l-2.5-1.3 2.5 1.3zm7.3 4.9l-2.5-1.3c.9.4 1.7.8 2.5 1.3z"/><path d="M12.2 93.8l-1.3-1.3c.5.4.9.9 1.3 1.3zm3.7 2.4l-1.3-1.3 1.3 1.3zm3.7 2.5l-1.3-1.3 1.3 1.3zm7.3 4.8l-1.3-1.3c.4.5.9.9 1.3 1.3z"/></g><text transform="translate(107.416 103.513)" fill="#96ceca" font-family="Roboto" font-size="85.444">4+</text></svg>