<?xml version="1.0" encoding="utf-8"?>
<!-- Generator: Adobe Illustrator 21.1.0, SVG Export Plug-In . SVG Version: 6.00 Build 0)  -->
<svg version="1.1" id="Слой_1" xmlns="http://www.w3.org/2000/svg" xmlns:xlink="http://www.w3.org/1999/xlink" x="0px" y="0px"
	 viewBox="0 0 358.9 358.7" style="enable-background:new 0 0 358.9 358.7;" xml:space="preserve">
<style type="text/css">
	.st0{fill:#898989;}
</style>
<g>
	<path class="st0" d="M358.9,165.7c0,9.8,0,19.6,0,29.4c-0.2,0.8-0.6,1.5-0.7,2.3c-1.3,13.5-4.1,26.7-8.5,39.5
		c-10.2,29.8-26.9,55.3-50.4,76.4c-16.1,14.5-34.1,25.7-54.3,33.6c-1.1,0.4-2.2,0.7-3.6,1.1c-0.1-1.5-0.2-2.6-0.2-3.6
		c0-37.4,0-74.9,0-112.3c0-3.9,0.1-4,4-4c9.4,0,18.9,0,28.3,0c3.6,0,3.9-0.5,4.3-4.2c0.7-7.7,1.7-15.4,2.4-23.1
		c0.6-5.7,1-11.4,1.6-17.4c-1.8-0.1-3.3-0.3-4.8-0.3c-10.8,0-21.5,0-32.3,0c-1.9,0-3.7,0-3.6-2.7c0.3-9.3,0.3-18.6,0.7-27.9
		c0.2-4.7,3.2-7.7,7.6-8.9c2.7-0.7,5.6-1.2,8.5-1.2c6.5-0.2,12.9,0,19.4-0.1c4.4,0,4.6-0.3,4.6-4.7c0-12.1,0-24.2,0-36.2
		c0-4-0.4-4.3-4.3-4.3c-10,0-20.1-0.3-30.1,0.1c-8.1,0.3-16.2,0.6-24.2,2.6c-13.7,3.5-24.4,10.9-30.4,24c-3.6,7.8-5.4,16.1-5.6,24.6
		c-0.2,10-0.1,20.1-0.1,30.1c0,4.7,0,4.7-4.8,4.7c-6.2,0-12.4,0-18.7,0c-3.5,0-3.7,0.2-3.7,3.7c0,12.6,0,25.1,0,37.7
		c0,3.4,0.2,3.6,3.7,3.7c6.3,0,12.7,0,19,0c4.4,0,4.4,0.1,4.4,4.4c0,14.5,0,28.9,0,43.4c0,27.6,0,55.2,0.1,82.9
		c-9.6,0-19.1,0-28.7,0c-1.3-0.4-2.7-0.9-4-1.1c-4.1-0.7-8.3-1.2-12.4-2.1c-18.7-4.1-36.4-10.8-52.9-20.5
		C63,319.6,41.8,298.9,26,272.9c-20.3-33.5-28.6-70-25.3-109.2c1.2-13.7,3.6-27,8.2-39.9C28.6,67.4,66.7,29.1,123.2,9.3
		c18-6.3,36.8-9.2,56-9.3c5.7,0,11.4,0.5,17.1,1c15.2,1.3,30,4.5,44.3,9.8c38.9,14.4,69.5,39.2,91.5,74.4
		c13.7,21.9,22.2,45.7,25.4,71.4C357.9,159.6,358.4,162.7,358.9,165.7z"/>
</g>
</svg>
