<svg xmlns="http://www.w3.org/2000/svg" viewBox="0 0 358.9 358.7"><path d="M358.9 165.7v29.4c-.2.8-.6 1.5-.7 2.3-1.3 13.5-4.1 26.7-8.5 39.5-10.2 29.8-26.9 55.3-50.4 76.4-16.1 14.5-34.1 25.7-54.3 33.6-1.1.4-2.2.7-3.6 1.1-.1-1.5-.2-2.6-.2-3.6V232.1c0-3.9.1-4 4-4h28.3c3.6 0 3.9-.5 4.3-4.2l2.4-23.1 1.6-17.4c-1.8-.1-3.3-.3-4.8-.3h-32.3c-1.9 0-3.7 0-3.6-2.7l.7-27.9c.2-4.7 3.2-7.7 7.6-8.9 2.7-.7 5.6-1.2 8.5-1.2 6.5-.2 12.9 0 19.4-.1 4.4 0 4.6-.3 4.6-4.7v-36.2c0-4-.4-4.3-4.3-4.3-10 0-20.1-.3-30.1.1-8.1.3-16.2.6-24.2 2.6-13.7 3.5-24.4 10.9-30.4 24-3.6 7.8-5.4 16.1-5.6 24.6-.2 10-.1 20.1-.1 30.1 0 4.7 0 4.7-4.8 4.7h-18.7c-3.5 0-3.7.2-3.7 3.7v37.7c0 3.4.2 3.6 3.7 3.7h19c4.4 0 4.4.1 4.4 4.4v43.4l.1 82.9h-28.7c-1.3-.4-2.7-.9-4-1.1-4.1-.7-8.3-1.2-12.4-2.1-18.7-4.1-36.4-10.8-52.9-20.5C63 319.6 41.8 298.9 26 272.9 5.7 239.4-2.6 202.9.7 163.7c1.2-13.7 3.6-27 8.2-39.9C28.6 67.4 66.7 29.1 123.2 9.3c18-6.3 36.8-9.2 56-9.3 5.7 0 11.4.5 17.1 1 15.2 1.3 30 4.5 44.3 9.8 38.9 14.4 69.5 39.2 91.5 74.4 13.7 21.9 22.2 45.7 25.4 71.4.4 3 .9 6.1 1.4 9.1z" fill="#898989"/></svg>