<?xml version="1.0" encoding="utf-8"?>
<!-- Generator: Adobe Illustrator 21.1.0, SVG Export Plug-In . SVG Version: 6.00 Build 0)  -->
<svg version="1.1" id="Слой_1" xmlns="http://www.w3.org/2000/svg"  x="0px" y="0px"
	 viewBox="0 0 347.6 347.3" style="enable-background:new 0 0 347.6 347.3;" xml:space="preserve">
<style type="text/css">
	.st0{fill:#898989;}
</style>
<g>
	<path class="st0" d="M174,347.3c-41.5,0-83.1,0-124.6,0c-5.2,0-10.2-1.4-15.1-3.2c-5.5-2-10.4-4.9-14.9-8.6
		c-2.8-2.3-5.3-4.9-7.6-7.8c-2.4-3.1-4.6-6.4-6.3-10c-2-4.3-3.6-8.8-4.4-13.5c-0.7-4.1-1-8.1-1-12.3C0,212,0,132.1,0.1,52.1
		c0-7.2,1.6-14.2,4.6-20.9c1.7-3.8,3.8-7.5,6.3-10.7c4.1-5.2,9-9.7,14.8-13.1c4.8-2.8,9.8-5,15.3-6.1c3.1-0.6,6.2-1.2,9.3-1.2
		C76.7,0,103.1,0,129.5,0c4.8,0,9.6,0,14.3,0c51.5,0,103,0,154.6,0.1c5,0,9.9,1.4,14.6,3.1c5.4,2,10.4,4.6,14.8,8.4
		c1.4,1.2,3,2.2,4.2,3.6c2.7,3.1,5.3,6.2,7.6,9.6c2.7,4.1,4.8,8.5,5.9,13.3c0.7,3,1.5,6.1,1.7,9.2c0.4,5.8,0.4,11.6,0.4,17.3
		c0,77.2,0,154.4,0,231.7c0,6-1.3,11.7-3.4,17.3c-1.9,5.1-4.6,9.9-8.1,14.2c-2,2.5-4.5,4.6-6.8,6.9c-3.7,3.5-7.9,6.1-12.5,8.2
		c-3.9,1.7-7.9,3-12,3.9c-3.2,0.6-6.5,0.7-9.8,0.7C254.7,347.3,214.3,347.3,174,347.3z M277.2,178c0-25.6,0-51.2,0-76.7
		c0-2-0.4-4-1-5.9c-1.6-5.5-4.8-10-9.4-13.4c-4.4-3.2-9.2-5-14.7-5c-49.4,0-98.8,0-148.2,0c-2.4,0-4.8,0-7.2,0.4
		c-2.5,0.4-5,1.1-7.2,2.2c-3.2,1.7-6.2,3.8-8.5,6.8c-3.5,4.6-5.8,9.7-5.9,15.4c-0.1,49,0,98,0,146.9c0,2.8,0.1,5.6,0.4,8.4
		c0.3,3.1,1.4,6,3,8.8c1.7,2.9,3.8,5.4,6.4,7.5c4.3,3.4,9.1,5.5,14.4,5.5c50.7,0.1,101.3,0.1,152,0c1.4,0,2.8-0.2,4.3-0.3
		c3.6-0.2,6.8-1.8,9.8-3.7c4.7-3,8.1-7.1,10.1-12.3c1-2.6,1.7-5.3,1.7-8.1C277.2,229,277.2,203.5,277.2,178z"/>
	<path class="st0" d="M98,162.6c6.2,0,12.1,0,17.7,0c-0.6,3.7-1.3,7.3-1.6,11c-0.3,3.6-0.6,7.3-0.3,11c0.5,6.5,2.1,12.9,4.7,18.9
		c2.2,5.1,5.1,9.8,8.7,14.1c3.7,4.5,7.9,8.4,12.8,11.8c7.1,4.9,14.8,8.2,23.2,10c3.6,0.8,7.3,1.3,11,1.2c2-0.1,4,0,6,0
		c4.5,0,9-0.8,13.3-2c4.1-1.1,8.2-2.6,12-4.6c4.6-2.4,9-5.1,12.9-8.6c1.6-1.5,3.3-2.9,4.9-4.5c3.2-3.4,6-7.2,8.4-11.2
		c2.4-4.1,4.3-8.5,5.5-13.1c0.8-2.8,1.3-5.7,1.8-8.6c0.4-2.6,0.7-5.2,0.7-7.8c0.1-5.9-0.9-11.7-2.5-17.5c5.8,0,11.5,0,17.3,0
		c0,0.5,0.1,1,0.1,1.5c0,27.4,0,54.9,0,82.3c0,4.3-2.3,7.6-6.2,8.7c-0.6,0.2-1.2,0.2-1.8,0.2c-47,0-94,0-140.9,0
		c-3.2,0-7.3-3-7.5-7.3c0-0.2,0-0.4,0-0.5c0-27.8,0-55.6,0-83.4C98,163.7,98,163.2,98,162.6z"/>
	<path class="st0" d="M176.3,216.8c-6.5-0.1-12.7-1.6-18.4-4.5c-5.7-2.9-10.4-6.9-14.3-12.1c-3.7-5-6-10.5-7.1-16.5
		c-0.6-3.3-0.6-6.7-0.2-10.2c0.6-4.5,1.7-8.8,3.8-12.8c3.4-6.6,8.2-11.9,14.5-15.9c4.9-3.1,10.2-5.2,15.9-5.8
		c3.3-0.3,6.6-0.5,9.9-0.3c3.9,0.2,7.7,1.3,11.4,2.8c5.8,2.3,10.7,5.8,14.9,10.4c4.6,5,7.6,10.9,9.1,17.5c0.5,2.2,0.6,4.5,0.8,6.7
		c0.5,6.7-1,13-4.1,18.9c-1.4,2.7-3.4,5.1-5.2,7.6c-3.8,5-8.9,8.2-14.5,10.8c-3.5,1.6-7.3,2.6-11.2,3
		C179.9,216.4,178.1,216.6,176.3,216.8z"/>
	<path class="st0" d="M233.9,99.8c3.9,0,7.9,0,11.8,0c4.1,0,8.3,4,8.3,8.2c0,7.7,0.1,15.5,0,23.2c0,2.9-2.5,6.9-6.6,7.8
		c-1.1,0.3-2.4,0.4-3.5,0.4c-6.9,0-13.8,0.1-20.7,0c-5.8-0.1-9.7-3.9-9.8-9.7c-0.1-6.5,0-13.1,0-19.6c0-2.5,0.6-4.8,2.1-6.8
		c1.6-2.1,3.7-3.3,6.3-3.4C225.8,99.7,229.9,99.8,233.9,99.8z"/>
</g>
</svg>
