<svg xmlns="http://www.w3.org/2000/svg" viewBox="0 0 347.6 347.3" fill="#898989"><path d="M174 347.3H49.4c-5.2 0-10.2-1.4-15.1-3.2-5.5-2-10.4-4.9-14.9-8.6-2.8-2.3-5.3-4.9-7.6-7.8-2.4-3.1-4.6-6.4-6.3-10-2-4.3-3.6-8.8-4.4-13.5-.7-4.1-1-8.1-1-12.3V52.1c0-7.2 1.6-14.2 4.6-20.9 1.7-3.8 3.8-7.5 6.3-10.7 4.1-5.2 9-9.7 14.8-13.1 4.8-2.8 9.8-5 15.3-6.1C44.2.7 47.3.1 50.4.1l93.4-.1 154.6.1c5 0 9.9 1.4 14.6 3.1 5.4 2 10.4 4.6 14.8 8.4 1.4 1.2 3 2.2 4.2 3.6 2.7 3.1 5.3 6.2 7.6 9.6 2.7 4.1 4.8 8.5 5.9 13.3.7 3 1.5 6.1 1.7 9.2.4 5.8.4 11.6.4 17.3v231.7c0 6-1.3 11.7-3.4 17.3-1.9 5.1-4.6 9.9-8.1 14.2-2 2.5-4.5 4.6-6.8 6.9-3.7 3.5-7.9 6.1-12.5 8.2-3.9 1.7-7.9 3-12 3.9-3.2.6-6.5.7-9.8.7l-121-.2zM277.2 178v-76.7c0-2-.4-4-1-5.9-1.6-5.5-4.8-10-9.4-13.4-4.4-3.2-9.2-5-14.7-5H103.9c-2.4 0-4.8 0-7.2.4-2.5.4-5 1.1-7.2 2.2-3.2 1.7-6.2 3.8-8.5 6.8-3.5 4.6-5.8 9.7-5.9 15.4v146.9c0 2.8.1 5.6.4 8.4.3 3.1 1.4 6 3 8.8 1.7 2.9 3.8 5.4 6.4 7.5 4.3 3.4 9.1 5.5 14.4 5.5h152c1.4 0 2.8-.2 4.3-.3 3.6-.2 6.8-1.8 9.8-3.7 4.7-3 8.1-7.1 10.1-12.3 1-2.6 1.7-5.3 1.7-8.1V178zM98 162.6h17.7c-.6 3.7-1.3 7.3-1.6 11-.3 3.6-.6 7.3-.3 11 .5 6.5 2.1 12.9 4.7 18.9a57.08 57.08 0 0 0 8.7 14.1 62.58 62.58 0 0 0 12.8 11.8c7.1 4.9 14.8 8.2 23.2 10 3.6.8 7.3 1.3 11 1.2 2-.1 4 0 6 0 4.5 0 9-.8 13.3-2 4.1-1.1 8.2-2.6 12-4.6 4.6-2.4 9-5.1 12.9-8.6 1.6-1.5 3.3-2.9 4.9-4.5 3.2-3.4 6-7.2 8.4-11.2 2.4-4.1 4.3-8.5 5.5-13.1.8-2.8 1.3-5.7 1.8-8.6.4-2.6.7-5.2.7-7.8.1-5.9-.9-11.7-2.5-17.5h17.3c0 .5.1 1 .1 1.5v82.3c0 4.3-2.3 7.6-6.2 8.7-.6.2-1.2.2-1.8.2H105.7c-3.2 0-7.3-3-7.5-7.3v-83.9c-.2-.5-.2-1-.2-1.6zm78.3 54.2c-6.5-.1-12.7-1.6-18.4-4.5s-10.4-6.9-14.3-12.1c-3.7-5-6-10.5-7.1-16.5-.6-3.3-.6-6.7-.2-10.2.6-4.5 1.7-8.8 3.8-12.8 3.4-6.6 8.2-11.9 14.5-15.9 4.9-3.1 10.2-5.2 15.9-5.8 3.3-.3 6.6-.5 9.9-.3 3.9.2 7.7 1.3 11.4 2.8 5.8 2.3 10.7 5.8 14.9 10.4 4.6 5 7.6 10.9 9.1 17.5.5 2.2.6 4.5.8 6.7.5 6.7-1 13-4.1 18.9-1.4 2.7-3.4 5.1-5.2 7.6-3.8 5-8.9 8.2-14.5 10.8-3.5 1.6-7.3 2.6-11.2 3-1.7 0-3.5.2-5.3.4zm57.6-117h11.8c4.1 0 8.3 4 8.3 8.2v23.2c0 2.9-2.5 6.9-6.6 7.8-1.1.3-2.4.4-3.5.4h-20.7c-5.8-.1-9.7-3.9-9.8-9.7-.1-6.5 0-13.1 0-19.6 0-2.5.6-4.8 2.1-6.8 1.6-2.1 3.7-3.3 6.3-3.4 4-.2 8.1-.1 12.1-.1z"/></svg>