<?xml version="1.0" encoding="utf-8"?>
<!-- Generator: Adobe Illustrator 21.1.0, SVG Export Plug-In . SVG Version: 6.00 Build 0)  -->
<svg version="1.1" id="Слой_1" xmlns="http://www.w3.org/2000/svg" xmlns:xlink="http://www.w3.org/1999/xlink" x="0px" y="0px"
	 viewBox="0 0 98 98" style="enable-background:new 0 0 98 98;" xml:space="preserve">
<style type="text/css">
	.st0{fill:#898989;}
</style>
<path class="st0" d="M49,0C21.9,0,0,21.9,0,49s21.9,49,49,49s49-21.9,49-49S76.1,0,49,0z M22.5,28.7h52.9c0.4,0,0.6,0.6,0.3,0.8
	L49.3,51.6c-0.2,0.1-0.4,0.1-0.6,0L22.2,29.5C21.9,29.3,22.1,28.7,22.5,28.7z M76,68.8c0,0.3-0.2,0.5-0.5,0.5h-53
	c-0.3,0-0.5-0.2-0.5-0.5V32c0-0.4,0.5-0.6,0.8-0.4l25.9,21.5c0.2,0.1,0.4,0.1,0.6,0l25.9-21.5c0.3-0.2,0.8,0,0.8,0.4V68.8z"/>
</svg>
