<?xml version="1.0" encoding="utf-8"?>
<!-- Generator: Adobe Illustrator 21.1.0, SVG Export Plug-In . SVG Version: 6.00 Build 0)  -->
<svg version="1.1" id="Слой_1" xmlns="http://www.w3.org/2000/svg" xmlns:xlink="http://www.w3.org/1999/xlink" x="0px" y="0px"
	 viewBox="0 0 32 40" style="enable-background:new 0 0 32 40;" xml:space="preserve">
<style type="text/css">
	.st0{display:none;}
	.st1{display:inline;}
	.st2{display:inline;stroke:#333333;stroke-width:2;stroke-miterlimit:10;}
	.st3{display:inline;fill:none;stroke:#000000;stroke-width:2;stroke-miterlimit:10;}
	.st4{fill:#898989;}
</style>
<g class="st0">
	<rect x="-300.4" y="-91" class="st1" width="430.2" height="215"/>
</g>
<g class="st0">
	<path class="st1" d="M16,25.7l-0.8-1c-0.6-0.8-5.6-7.5-5.6-10.8c0-4,2.5-6.6,6.4-6.6s6.4,2.6,6.4,6.6c0,3.3-5,10-5.6,10.8L16,25.7z
		"/>
	<circle class="st1" cx="16" cy="13.9" r="2.8"/>
	<circle class="st2" cx="16" cy="16" r="15"/>
</g>
<g class="st0">
	<g class="st1">
		<path d="M16,8.8c2.9,0,4.7,1.8,4.7,4.9c0,1.7-2.3,5.7-4.7,9c-2.4-3.3-4.7-7.3-4.7-9C11.3,10.7,13.1,8.8,16,8.8 M16,6.8
			c-4,0-6.7,2.7-6.7,6.9c0,3.5,5.2,10.5,5.8,11.3l0.8,1.1l0.8-1.1c0.6-0.8,5.8-7.8,5.8-11.3C22.7,9.5,20,6.8,16,6.8L16,6.8z"/>
	</g>
	<circle class="st1" cx="16" cy="13.8" r="2.2"/>
	<circle class="st3" cx="16" cy="16" r="15"/>
</g>
<g class="st0">
	<g class="st1">
		<path d="M16,8.8c2.9,0,4.7,1.8,4.7,4.9c0,1.7-2.3,5.7-4.7,9c-2.4-3.3-4.7-7.3-4.7-9C11.3,10.7,13.1,8.8,16,8.8 M16,6.8
			c-4,0-6.7,2.7-6.7,6.9c0,3.5,5.2,10.5,5.8,11.3l0.8,1.1l0.8-1.1c0.6-0.8,5.8-7.8,5.8-11.3C22.7,9.5,20,6.8,16,6.8L16,6.8z"/>
	</g>
	<circle class="st1" cx="16" cy="13.8" r="2.2"/>
	<circle class="st3" cx="16" cy="16" r="15"/>
</g>
<g>
	<path class="st4" d="M16,8.8c-2.9,0-4.7,1.8-4.7,4.9c0,1.7,2.3,5.7,4.7,9c2.4-3.3,4.7-7.3,4.7-9C20.7,10.7,18.9,8.8,16,8.8z
		 M16,15.9c-1.2,0-2.2-1-2.2-2.2s1-2.2,2.2-2.2c1.2,0,2.2,1,2.2,2.2C18.2,14.9,17.2,15.9,16,15.9z"/>
	<path class="st4" d="M16,0C7.2,0,0,7.2,0,16s7.2,16,16,16s16-7.2,16-16S24.8,0,16,0z M16.8,25L16,26.1L15.2,25
		c-0.6-0.8-5.8-7.8-5.8-11.3c0-4.2,2.6-6.9,6.7-6.9s6.7,2.7,6.7,6.9C22.7,17.2,17.4,24.2,16.8,25z"/>
</g>
</svg>
