<?xml version="1.0" encoding="utf-8"?>
<!-- Generator: Adobe Illustrator 21.1.0, SVG Export Plug-In . SVG Version: 6.00 Build 0)  -->
<svg version="1.1" id="Слой_1" xmlns="http://www.w3.org/2000/svg"  x="0px" y="0px"
	 viewBox="0 0 148.6 161" style="enable-background:new 0 0 148.6 161;" xml:space="preserve">
<style type="text/css">
	.st0{fill:#18B6C5;}
	.st1{fill:#15B5C5;}
	.st2{fill:#17B6C5;}
</style>
<g>
	<path class="st0" d="M148.6,36.6c-3.4,5.4-7.3,10.2-13.8,11.8c-2.6,0.6-4.8,0-4.2-4.3c0.8-0.3,1.9-1,3-1.3
		c10-2.4,13.1-11.8,5.5-18.7c-3.8-3.5-9-5.8-13.9-7.4c-7.6-2.5-15.4-4.2-23.3-5.7c-2.7-0.5-5.9,0.3-8.5,1.2
		c-3.3,1.2-4.6,3.9-3.2,7.4c1.3,3.2,5.2,5.3,8.2,4.5c1.6-0.4,3-1.4,4.6-2c6.9-2.6,6.9-2.6,13.1,3.9c-1,2.1-2.1,4.4-3.9,8.2
		c-1.4-3.3-2.2-5.2-3.4-8.2c-2.2,0.6-4.9,1.3-7.7,1.9c-4.3,0.9-8.7,1.8-12.4-1.7c-3.1-2.9-5.1-6.4-4.3-10.7C85.4,9.9,89.7,7,95,6.2
		c3.3-0.5,6.9-0.6,10.1,0.2c9,2.2,17.9,5.2,26.9,7.6c8.2,2.2,13.6,6.7,15.1,15.4c0.1,0.4,1,0.7,1.5,1.1
		C148.6,32.5,148.6,34.5,148.6,36.6z"/>
	<path class="st1" d="M59.2,0c4.3,2.8,8.9,5.1,12.9,8.4c5.2,4.2,5,10-0.1,14.5c-2,1.7-4.2,3.2-6.6,4.5c-7.2,4-10.7,3.6-16-1.4
		c-4.8-4.6-6-9.9-2.9-16.3c1.7-3.5,4.4-6.4,6.6-9.6C55.1,0,57.2,0,59.2,0z M73.2,15.9c-3.7-3.2-6.2-5.5-8.8-7.6
		C60.5,5.2,55.5,5,52.7,7.7c-3.6,3.5-4.2,9.2-1.3,13.5c2.4,3.5,7.1,4.6,11.5,2.1C66,21.6,68.7,19.2,73.2,15.9z"/>
	<path class="st2" d="M116.7,81.8c-7.8,7.7-15,15.3-22.8,22.3c-12,10.7-20.6,23.9-27.6,38.1c-3.1,6.2-7.4,11.2-12.3,15.8
		c-4.2,3.9-6.4,4-10.3,0.1C30,144.5,16.3,130.9,2.8,117.2c-3.9-3.9-3.5-4.9-0.1-9.3c7.5-9.6,18.3-14.6,28.5-20.4
		c7.7-4.3,14.6-9.5,20.8-15.9c7.3-7.5,15.2-14.5,22.1-22.4c4-4.6,8.4-5,13.6-4.2c1,0.2,1.8,0.9,2.8,1.1c6.4,1,12.6,1.7,17.7-4
		c1.9-2.2,4.8-3.6,7.2-5.5c2.9-2.4,5.8-3.4,9-0.5c3,2.7,2.9,5.4-0.3,9.7c-2,2.7-3.6,5.8-6.1,8c-4.6,4-4.1,8.9-3.4,13.9
		C114.9,72.4,115.9,76.9,116.7,81.8z M56.4,143.3c8.9-12.4,1.9-0.9,3.4-3.9c2.9-5.6,6.3-11,9.5-16.5c7.6-13.4,19.4-23.1,29.9-33.9
		c2.5-2.6,5-5.1,7.8-8c-9.9-5.4-17-11.7-22-23.3c9.6,5.3,13.5,14.6,23.4,16.8c-0.6-6-1.1-11.3-1.6-16.8c1-3.9,7.1-5.3,6.5-12
		c-4.3,3.4-7.6,6.1-10.9,8.8c-1.8-0.6-3.3-1.3-4.9-1.5c-15.2-1.9-15.1-1.8-26.5,9.3C60.5,72.6,51,84.1,37.8,91.5
		c-5.5,3.1-10.8,6.7-16.5,9.5c-2.4,1.2-2.7,1.7-4,3.8c-6,1.8-6.4,3.4-8.5,6c13.8,13.9,27.2,27.5,40.9,41.3
		C52.7,149.9,54.4,149.2,56.4,143.3z"/>
	<path class="st2" d="M22.7,109.8c-0.7-0.7-1.5-1.5-2.2-2.2C21.2,108.3,22,109,22.7,109.8z"/>
	<path class="st2" d="M24.7,111.8c-0.7-0.7-1.5-1.5-2.2-2.2C23.3,110.3,24,111.1,24.7,111.8z"/>
	<path class="st2" d="M26.8,113.8c-0.7-0.7-1.5-1.5-2.2-2.2C25.3,112.4,26,113.1,26.8,113.8z"/>
	<path class="st2" d="M28.8,115.9c-0.7-0.7-1.5-1.5-2.2-2.2C27.3,114.4,28.1,115.1,28.8,115.9z"/>
	<path class="st2" d="M30.8,117.9c-0.7-0.7-1.5-1.5-2.2-2.2C29.4,116.4,30.1,117.2,30.8,117.9z"/>
	<path class="st2" d="M32.9,119.9c-0.7-0.7-1.5-1.5-2.2-2.2C31.4,118.5,32.1,119.2,32.9,119.9z"/>
	<path class="st2" d="M34.9,121.9c-0.7-0.7-1.5-1.5-2.2-2.2C33.4,120.5,34.2,121.2,34.9,121.9z"/>
	<path class="st2" d="M36.9,124c-0.7-0.7-1.5-1.5-2.2-2.2C35.5,122.5,36.2,123.2,36.9,124z"/>
	<path class="st2" d="M39,126c-0.7-0.7-1.5-1.5-2.2-2.2C37.5,124.5,38.2,125.3,39,126z"/>
	<path class="st2" d="M41,128c-0.7-0.7-1.5-1.5-2.2-2.2C39.5,126.6,40.3,127.3,41,128z"/>
	<path class="st2" d="M43,130.1c-0.7-0.7-1.5-1.5-2.2-2.2C41.6,128.6,42.3,129.3,43,130.1z"/>
	<path class="st2" d="M45.1,132.1c-0.7-0.7-1.5-1.5-2.2-2.2C43.6,130.6,44.3,131.4,45.1,132.1z"/>
	<path class="st2" d="M47.1,134.1c-0.7-0.7-1.5-1.5-2.2-2.2C45.6,132.7,46.4,133.4,47.1,134.1z"/>
	<path class="st2" d="M49.1,136.2c-0.7-0.7-1.5-1.5-2.2-2.2C47.7,134.7,48.4,135.4,49.1,136.2z"/>
	<path class="st2" d="M51.1,138.2c-0.7-0.7-1.5-1.5-2.2-2.2C49.7,136.7,50.4,137.5,51.1,138.2z"/>
	<path class="st2" d="M53.2,140.2c-0.7-0.7-1.5-1.5-2.2-2.2C51.7,138.8,52.4,139.5,53.2,140.2z"/>
	<path class="st2" d="M57.2,144c-0.7-0.7-0.4-0.2-1.1-0.9C56.9,143.8,56.5,143.3,57.2,144z"/>
</g>
</svg>
