<svg xmlns="http://www.w3.org/2000/svg" viewBox="0 0 339.7 339.4"><path d="M339.7 169.9c-.7 46.9-17.3 87.4-50.5 120.4-32.1 31.9-71.5 48.6-116.8 49.1-49.1.6-91.2-17.1-125.3-52.5C15.7 254.1-.2 214.4 0 169.1c.2-46.6 17.2-87 50.3-119.8C84.2 15.7 125.6-.9 173.3 0c46.1.9 85.9 18.3 118.1 51.4 32 32.8 47.7 72.7 48.3 118.5zm-202.1 1.6c-1.6-.2-2.8-.3-4-.6-5.3-1.4-8.6-5.5-11.9-9.3-3.7-4.5-7.1-9.3-10.1-14.2-4.9-7.8-9.5-15.7-13.9-23.7-1.8-3.2-4.2-4.8-7.7-5.2-.9-.1-1.8-.1-2.7-.1H59c-1.1 0-2.3.2-3.4.5-2.2.6-3.1 2.1-2.3 4.2.7 2 1.6 3.9 2.6 5.7l9.1 17.1c4.3 7.6 8.8 15.2 13.4 22.7 3.7 5.9 7.6 11.7 11.5 17.5 7.5 11.1 15.9 21.4 25.6 30.7 6 5.8 12.5 10.9 20.1 14.3 3.4 1.5 7.2 2.9 10.9 3 9.8.4 19.6.2 29.4.1 3.1 0 6-2.4 5.9-6.1-.2-6.7-.1-13.5-.1-20.2 0-2.2.2-2.4 2.4-1.9 1.3.3 2.7.6 4 1 6.2 1.9 11.4 5.3 16 9.7 3.7 3.5 7.2 7.1 10.7 10.7 1.4 1.4 2.7 2.8 4.2 4.1 1.7 1.5 3.6 2.7 5.9 2.7h43c2 0 3.8-.9 4.7-2.7 1-1.8-.3-3.4-1.4-4.7l-14.9-16.7c-4.4-4.9-9-9.5-13.4-14.4-2.8-3.1-5.5-6.3-7.9-9.7-2.7-3.7-2.6-5.2 0-9l9.1-13.8 21.8-34.6c1-1.6 2-3.3 2.6-5.1.9-2.6.1-3.8-2.3-4.4-1.3-.3-2.7-.5-4.1-.5-10.9 0-21.8.1-32.6-.1-3.6-.1-6.2 1.3-7.9 4.3-2.1 3.6-4.2 7.2-6.1 10.9-4 7.9-8.3 15.6-13.5 22.8-2.7 3.8-5.7 7.4-9.5 10.1-3.5 2.5-7.1 4.6-11.8 4.8-.1-1.1-.3-2-.3-3 0-2.2.3-4.4.3-6.6l.2-39.8c0-1.5-.2-3-.5-4.5-.4-2.2-1.9-3.6-3.9-4.1s-4.2-.8-6.3-.8c-9-.1-17.9-.1-26.9 0-2.5 0-5 .3-7.5.8-2.9.5-5.5 1.7-7.4 4.2-1.3 1.7-.8 3.2 1.2 3.9.6.2 1.3.3 2 .5 2.5.8 4.7 1.8 5.4 4.6.4 2 1 4 1 6v36.1c-.2.7-.3 1.5-.4 2.8z" fill="#898989"/><path d="M137.6 171.5l.1-2.9v-36.1c0-2-.5-4.1-1-6-.6-2.8-2.9-3.9-5.4-4.6-.6-.2-1.3-.2-2-.5-2-.7-2.4-2.2-1.2-3.9 1.9-2.4 4.5-3.6 7.4-4.2 2.5-.5 5-.8 7.5-.8h26.9c2.1 0 4.3.3 6.3.8s3.5 2 3.9 4.1c.3 1.5.5 3 .5 4.5l-.2 39.8-.3 6.6c0 .9.2 1.9.3 3 4.7-.2 8.4-2.3 11.8-4.8 3.8-2.8 6.8-6.4 9.5-10.1 5.2-7.2 9.5-14.9 13.5-22.8 1.9-3.7 4-7.3 6.1-10.9 1.7-3 4.3-4.4 7.9-4.3 10.9.2 21.8 0 32.6.1 1.4 0 2.8.1 4.1.5 2.4.6 3.2 1.9 2.3 4.4-.6 1.8-1.6 3.5-2.6 5.1l-21.8 34.6c-3 4.7-6.1 9.2-9.1 13.8-2.6 3.8-2.7 5.3 0 9 2.5 3.4 5.2 6.6 7.9 9.7 4.4 4.9 9 9.6 13.4 14.4l14.9 16.7c1.1 1.3 2.4 2.9 1.4 4.7-.9 1.8-2.7 2.7-4.7 2.7h-43c-2.3 0-4.2-1.2-5.9-2.7-1.4-1.3-2.8-2.8-4.2-4.1l-10.7-10.7c-4.6-4.4-9.9-7.8-16-9.7-1.3-.4-2.6-.7-4-1-2.2-.5-2.4-.3-2.4 1.9 0 6.7-.2 13.5.1 20.2.1 3.7-2.8 6.1-5.9 6.1-9.8.1-19.6.3-29.4-.1-3.7-.2-7.5-1.5-10.9-3-7.6-3.4-14.1-8.5-20.1-14.3-9.7-9.3-18.1-19.6-25.6-30.7l-11.5-17.5c-4.6-7.5-9-15-13.4-22.7-3.2-5.6-6.1-11.4-9.1-17.1-1-1.9-1.9-3.7-2.6-5.7-.7-2.1.2-3.6 2.3-4.2 1.1-.3 2.3-.5 3.4-.5H87c.9 0 1.8.1 2.7.1 3.5.4 5.9 2 7.7 5.2 4.4 8 9.1 15.9 13.9 23.7 3.1 4.9 6.4 9.8 10.1 14.2 3.2 3.9 6.6 7.9 11.9 9.3 1.5.5 2.8.5 4.3.7z" fill="#fff"/></svg>